HIERARCHY
ROOT Hips
{
  OFFSET 5.84602e-005 68.8428 3.50346
  CHANNELS 6 Xposition Yposition Zposition Zrotation Xrotation Yrotation
  JOINT Spine
  {
    OFFSET 0 8.597 -4.6522
    CHANNELS 3 Zrotation Xrotation Yrotation
    JOINT Spine1
    {
      OFFSET 0 7.8454 0.4098
      CHANNELS 3 Zrotation Xrotation Yrotation
      JOINT Spine2
      {
        OFFSET 0 9.7078 -2.1609
        CHANNELS 3 Zrotation Xrotation Yrotation
        JOINT Neck
        {
          OFFSET 0 21.8761 -0.4549
          CHANNELS 3 Zrotation Xrotation Yrotation
          JOINT Head
          {
            OFFSET 0 12.3537 3.3602
            CHANNELS 3 Zrotation Xrotation Yrotation
            End Site
            {
              OFFSET 0.0001 18.9506 0.5657
            }
          }
        }
        JOINT LeftShoulder
        {
          OFFSET 2.2086 21.1115 7.2329
          CHANNELS 3 Zrotation Xrotation Yrotation
          JOINT LeftArm
          {
            OFFSET 13.1193 3.0282 -4.8998
            CHANNELS 3 Zrotation Xrotation Yrotation
            JOINT LeftForeArm
            {
              OFFSET 27.4081 -0.0973053 -0.2375
              CHANNELS 3 Zrotation Xrotation Yrotation
              JOINT LeftHand
              {
                OFFSET 22.8641 0.0662994 -0.1369
                CHANNELS 3 Zrotation Xrotation Yrotation
                JOINT LeftHandIndex1
                {
                  OFFSET 8.8614 0.775009 2.4612
                  CHANNELS 3 Zrotation Xrotation Yrotation
                  JOINT LeftHandIndex2
                  {
                    OFFSET 3.3146 -0.808304 0.5841
                    CHANNELS 3 Zrotation Xrotation Yrotation
                    JOINT LeftHandIndex3
                    {
                      OFFSET 2.2628 -0.552002 0.3989
                      CHANNELS 3 Zrotation Xrotation Yrotation
                      End Site
                      {
                        OFFSET 1.6102 -0.4807 0.2612
                      }
                    }
                  }
                }
                JOINT LeftHandMiddle1
                {
                  OFFSET 8.9937 0.895004 0.2143
                  CHANNELS 3 Zrotation Xrotation Yrotation
                  JOINT LeftHandMiddle2
                  {
                    OFFSET 4.0984 0.0113983 -0.0242
                    CHANNELS 3 Zrotation Xrotation Yrotation
                    JOINT LeftHandMiddle3
                    {
                      OFFSET 2.2716 0.00689697 -0.0138001
                      CHANNELS 3 Zrotation Xrotation Yrotation
                      End Site
                      {
                        OFFSET 2.0404 -0.1441 0.0027
                      }
                    }
                  }
                }
                JOINT LeftHandRing1
                {
                  OFFSET 8.5234 0.597198 -2.0164
                  CHANNELS 3 Zrotation Xrotation Yrotation
                  JOINT LeftHandRing2
                  {
                    OFFSET 3.7188 -0.188293 -0.2328
                    CHANNELS 3 Zrotation Xrotation Yrotation
                    JOINT LeftHandRing3
                    {
                      OFFSET 2.1191 -0.106598 -0.1332
                      CHANNELS 3 Zrotation Xrotation Yrotation
                      End Site
                      {
                        OFFSET 1.8737 -0.2304 -0.0886
                      }
                    }
                  }
                }
                JOINT LeftHandPinky1
                {
                  OFFSET 7.9094 -0.601089 -3.4825
                  CHANNELS 3 Zrotation Xrotation Yrotation
                  JOINT LeftHandPinky2
                  {
                    OFFSET 2.2874 -0.477005 -0.6314
                    CHANNELS 3 Zrotation Xrotation Yrotation
                    JOINT LeftHandPinky3
                    {
                      OFFSET 1.6774 -0.349396 -0.4633
                      CHANNELS 3 Zrotation Xrotation Yrotation
                      End Site
                      {
                        OFFSET 1.4888 -0.4091 -0.3416
                      }
                    }
                  }
                }
                JOINT LeftHandThumb1
                {
                  OFFSET 1.833 -1.3875 1.3896
                  CHANNELS 3 Zrotation Xrotation Yrotation
                  JOINT LeftHandThumb2
                  {
                    OFFSET 3.4129 -1.121 2.5732
                    CHANNELS 3 Zrotation Xrotation Yrotation
                    JOINT LeftHandThumb3
                    {
                      OFFSET 2.2474 -0.804199 1.6192
                      CHANNELS 3 Zrotation Xrotation Yrotation
                      End Site
                      {
                        OFFSET 1.6527 -0.5689 1.1317
                      }
                    }
                  }
                }
              }
            }
          }
        }
        JOINT RightShoulder
        {
          OFFSET -2.2086 21.1115 7.2329
          CHANNELS 3 Zrotation Xrotation Yrotation
          JOINT RightArm
          {
            OFFSET -13.1216 3.0287 -4.9007
            CHANNELS 3 Zrotation Xrotation Yrotation
            JOINT RightForeArm
            {
              OFFSET -27.4081 -0.0973053 -0.2375
              CHANNELS 3 Zrotation Xrotation Yrotation
              JOINT RightHand
              {
                OFFSET -22.8641 0.0664063 -0.1369
                CHANNELS 3 Zrotation Xrotation Yrotation
                JOINT RightHandIndex1
                {
                  OFFSET -8.8614 0.774994 2.4612
                  CHANNELS 3 Zrotation Xrotation Yrotation
                  JOINT RightHandIndex2
                  {
                    OFFSET -3.3146 -0.808304 0.5841
                    CHANNELS 3 Zrotation Xrotation Yrotation
                    JOINT RightHandIndex3
                    {
                      OFFSET -2.2628 -0.552002 0.3989
                      CHANNELS 3 Zrotation Xrotation Yrotation
                      End Site
                      {
                        OFFSET -1.6102 -0.4807 0.2612
                      }
                    }
                  }
                }
                JOINT RightHandMiddle1
                {
                  OFFSET -8.9937 0.894989 0.2143
                  CHANNELS 3 Zrotation Xrotation Yrotation
                  JOINT RightHandMiddle2
                  {
                    OFFSET -4.0984 0.0113983 -0.0242
                    CHANNELS 3 Zrotation Xrotation Yrotation
                    JOINT RightHandMiddle3
                    {
                      OFFSET -2.2716 0.00691223 -0.0138001
                      CHANNELS 3 Zrotation Xrotation Yrotation
                      End Site
                      {
                        OFFSET -2.0404 -0.1441 0.0027
                      }
                    }
                  }
                }
                JOINT RightHandRing1
                {
                  OFFSET -8.5234 0.597198 -2.0164
                  CHANNELS 3 Zrotation Xrotation Yrotation
                  JOINT RightHandRing2
                  {
                    OFFSET -3.7188 -0.188309 -0.2328
                    CHANNELS 3 Zrotation Xrotation Yrotation
                    JOINT RightHandRing3
                    {
                      OFFSET -2.1191 -0.106598 -0.1332
                      CHANNELS 3 Zrotation Xrotation Yrotation
                      End Site
                      {
                        OFFSET -1.8737 -0.2304 -0.0886
                      }
                    }
                  }
                }
                JOINT RightHandPinky1
                {
                  OFFSET -7.9094 -0.601105 -3.4825
                  CHANNELS 3 Zrotation Xrotation Yrotation
                  JOINT RightHandPinky2
                  {
                    OFFSET -2.2874 -0.477005 -0.6314
                    CHANNELS 3 Zrotation Xrotation Yrotation
                    JOINT RightHandPinky3
                    {
                      OFFSET -1.6774 -0.349396 -0.4633
                      CHANNELS 3 Zrotation Xrotation Yrotation
                      End Site
                      {
                        OFFSET -1.4888 -0.4091 -0.3416
                      }
                    }
                  }
                }
                JOINT RightHandThumb1
                {
                  OFFSET -1.833 -1.38751 1.3896
                  CHANNELS 3 Zrotation Xrotation Yrotation
                  JOINT RightHandThumb2
                  {
                    OFFSET -3.41299 -1.12099 2.5732
                    CHANNELS 3 Zrotation Xrotation Yrotation
                    JOINT RightHandThumb3
                    {
                      OFFSET -2.24741 -0.804108 1.6192
                      CHANNELS 3 Zrotation Xrotation Yrotation
                      End Site
                      {
                        OFFSET -1.6527 -0.5689 1.1317
                      }
                    }
                  }
                }
              }
            }
          }
        }
      }
    }
  }
  JOINT RightUpLeg
  {
    OFFSET -9.1966 3.8861 -0.7581
    CHANNELS 3 Zrotation Xrotation Yrotation
    JOINT RightLeg
    {
      OFFSET -0.7359 -41.0265 0
      CHANNELS 3 Zrotation Xrotation Yrotation
      JOINT RightFoot
      {
        OFFSET 0 -40.2855 0
        CHANNELS 3 Zrotation Xrotation Yrotation
        JOINT RightToeBase
        {
          OFFSET 0 -5.6122 11.7359
          CHANNELS 3 Zrotation Xrotation Yrotation
          End Site
          {
            OFFSET 0 0 7.8731
          }
        }
      }
    }
  }
  JOINT LeftUpLeg
  {
    OFFSET 9.1965 3.8864 -0.7581
    CHANNELS 3 Zrotation Xrotation Yrotation
    JOINT LeftLeg
    {
      OFFSET 0.7359 -41.0268 0
      CHANNELS 3 Zrotation Xrotation Yrotation
      JOINT LeftFoot
      {
        OFFSET 0 -40.2855 0
        CHANNELS 3 Zrotation Xrotation Yrotation
        JOINT LeftToeBase
        {
          OFFSET 0 -5.6122 11.7359
          CHANNELS 3 Zrotation Xrotation Yrotation
          End Site
          {
            OFFSET 0 0 7.8731
          }
        }
      }
    }
  }
}
MOTION
Frames:	4
Frame Time:	0.0333333
5.84602e-005 68.8428 3.50346 0 0 -0 0 0 -0 0 0 -0 0 0 -0 0 0 -0 0 0 -0 0 0 -0 0 0 -0 0 0 -0 0 0 -0 0 0 -0 0 0 -0 0 0 -0 0 0 -0 -0.0146107 -8.87603e-005 -2.63497e-007 2.99804e-018 -2.42657e-020 -1.42182e-022 0 0 -0 -0.0187562 -0.001176 5.858e-005 5.06224e-018 3.88251e-019 1.21329e-020 0 0 -0 -0.012269 -0.00324817 0.000675346 -1.74678e-018 3.88251e-019 -0 0 0 -0 0 0 -0 0 0 -0 0 0 -0 0 0 -0 0 0 -0 0 0 -0 0 0 -0 0 0 -0 0 0 -0 0 0 -0 0.0149955 -9.10982e-005 2.64101e-007 -9.69331e-018 1.21329e-020 -4.7394e-023 0 0 -0 0.0189956 -0.00119102 -5.96516e-005 -5.41541e-019 0 2.42657e-020 0 0 -0 0.0122698 -0.00324857 -0.000673756 -2.00796e-019 0 -1.94126e-019 0 0 -0 0 0 -0 0 0 -0 3.39842 1.33031 -0.0637918 -5.65207e-008 0.834868 -0.000436188 -3.39935 -2.16518 -0.0642563 -8.89002e-024 -1.18485e-023 -1.48106e-024 -3.39844 1.35642 0.0640283 -3.18788e-007 0.782166 -0.000588827 3.39931 -2.13858 0.0634662 1.1399e-023 0 -0 
-17.6087 36.7355 37.1443 0.00856018 4.04008e-015 125.154 0.34805 2.46646 -0.151869 0.703618 4.93194 -0.318932 0.703619 4.93194 -0.318923 0.0666141 7.3658 -0.0115719 -0.0161468 -27.4103 0.0773774 -18.0101 -18.9448 -31.553 -58.9174 21.724 14.701 6.9877 17.4466 -15.2395 -15.8804 3.46561 -16.4499 -8.34896e-015 -6.36111e-015 3.97569e-016 -5.76476e-015 -6.36111e-015 -2.98177e-016 -1.39149e-015 3.18055e-015 -3.97569e-016 -8.34896e-015 -6.36111e-015 3.97569e-016 -0.0146111 -8.98285e-005 -2.9604e-007 -7.95139e-016 -1.59028e-014 2.88238e-015 -8.34896e-015 -6.36111e-015 3.97569e-016 -0.0187465 -0.00117571 5.3869e-005 1.59028e-015 -3.18055e-015 1.39149e-015 -8.34896e-015 -6.36111e-015 3.97569e-016 -0.0122474 -0.00324425 0.000672943 -1.98785e-015 -6.36111e-015 6.95746e-016 -8.34896e-015 -6.36111e-015 3.97569e-016 -5.76476e-015 -6.36111e-015 -2.98177e-016 -1.39149e-015 3.18055e-015 -3.97569e-016 -5.67115 -45.1295 -37.6592 -3.81749 10.0222 26.3064 -32.6494 -41.688 50.1019 5.54255 -20.2006 -3.69813 -1.65203e-006 -1.64411e-008 -3.52797e-007 -2.02636e-006 -2.70947e-006 -9.28151e-007 1.85934e-007 -4.16552e-007 6.57697e-007 -1.65203e-006 -1.64411e-008 -3.52797e-007 0.0149976 -9.33626e-005 8.74551e-007 1.85934e-007 -4.16466e-007 6.57751e-007 -1.65203e-006 -1.64411e-008 -3.52797e-007 0.0189754 -0.00119495 -6.0573e-005 1.85941e-007 -4.16443e-007 6.57764e-007 -1.65203e-006 -1.64411e-008 -3.52797e-007 0.012337 -0.00326921 -0.000683517 2.24452e-006 8.06335e-007 8.28532e-007 -1.65203e-006 -1.64411e-008 -3.52797e-007 -2.02636e-006 -2.70947e-006 -9.28151e-007 1.85934e-007 -4.16552e-007 6.57697e-007 -0.942524 -12.0716 -3.96082 -40.98 83.4166 39.6502 -9.20199 38.5857 -2.1002 9.81156e-007 2.6563e-006 -8.93633e-007 2.12117 -10.3879 1.79863 46.9544 83.5398 -45.0569 9.25305 38.7913 -1.48478 3.18055e-015 -3.18055e-015 -7.95139e-016 
-30.2367 22.1644 53.2091 0.0124054 7.01439e-015 -178.526 0.510688 3.59519 -0.202052 1.03719 7.18862 -0.437566 1.03719 7.18862 -0.437566 -0.235594 10.8434 0.040629 -0.0187697 -39.7462 -0.312661 -32.2887 -23.0207 -47.5904 -89.8786 30.2557 23.2595 13.5462 24.229 -23.9062 -22.614 4.67937 -23.6101 1.13579e-006 -6.00822e-007 1.09216e-006 -2.20695e-032 7.95139e-016 1.59028e-015 1.13579e-006 -6.00822e-007 1.09216e-006 1.13579e-006 -6.00822e-007 1.09216e-006 -0.0146424 -8.95561e-005 3.29137e-006 1.13582e-006 -6.00961e-007 1.09208e-006 1.13579e-006 -6.00822e-007 1.09216e-006 -0.0188102 -0.00117906 6.14634e-005 1.13584e-006 -6.00999e-007 1.09205e-006 1.13579e-006 -6.00822e-007 1.09216e-006 -0.0122463 -0.00324525 0.000678272 1.13584e-006 -6.00938e-007 1.09206e-006 1.13579e-006 -6.00822e-007 1.09216e-006 -2.20695e-032 7.95139e-016 1.59028e-015 1.13579e-006 -6.00822e-007 1.09216e-006 -32.3353 -50.8181 -70.2471 -8.35437 12.8278 38.8634 -27.7442 -38.236 80.8434 7.00116 -28.9956 -5.36129 -2.16515e-006 9.15826e-007 1.13736e-006 -2.20695e-032 1.59028e-015 7.95139e-016 2.16515e-006 -9.15826e-007 -1.13736e-006 -2.16515e-006 9.15826e-007 1.13736e-006 0.0149371 -9.19519e-005 2.95151e-006 3.18055e-015 -1.59028e-015 -1.59028e-015 -2.16515e-006 9.15826e-007 1.13736e-006 0.019076 -0.00119922 -4.9864e-005 -6.36111e-015 -3.18055e-015 7.95139e-016 -2.16515e-006 9.15826e-007 1.13736e-006 0.0122791 -0.00324986 -0.000668605 1.90833e-014 3.18055e-015 -0 -2.16515e-006 9.15826e-007 1.13736e-006 -2.20695e-032 1.59028e-015 7.95139e-016 2.16515e-006 -9.15826e-007 -1.13736e-006 -2.89222 -18.0127 -7.23793 -168.314 57.8751 163.351 -8.77511 58.393 -5.78595 2.08526e-007 3.12815e-008 -3.26806e-008 4.37649 -15.6783 4.02303 168.556 57.0324 -162.522 12.3456 58.7845 -2.15379 3.10065e-007 -4.86188e-008 8.17131e-007 
-27.2717 25.3133 49.7039 0.0115509 6.88681e-015 168.958 0.46609 3.38235 -0.187732 0.945782 6.76305 -0.404133 0.945783 6.76304 -0.404132 -0.907805 10.432 0.157534 -0.00017073 -37.0045 -1.1614 -27.8766 -23.3091 -43.7474 -83.4999 28.2951 21.6132 12.2349 22.6991 -23.4027 -21.6302 4.16731 -21.3827 3.16951e-006 -2.12501e-006 3.27108e-006 -1.12422e-006 -4.83728e-008 3.20337e-006 -3.30494e-006 6.11592e-007 5.31638e-006 3.16951e-006 -2.12501e-006 3.27108e-006 -0.0146346 -8.82177e-005 3.92855e-006 -3.30453e-006 6.10916e-007 5.31646e-006 3.16951e-006 -2.12501e-006 3.27108e-006 -0.0187416 -0.00117194 6.88873e-005 -3.30436e-006 6.10757e-007 5.31651e-006 3.16951e-006 -2.12501e-006 3.27108e-006 -0.0122468 -0.00324238 0.000681428 -2.57079e-006 8.43198e-007 3.06314e-006 3.16951e-006 -2.12501e-006 3.27108e-006 -1.12422e-006 -4.83728e-008 3.20337e-006 -3.30494e-006 6.11592e-007 5.31638e-006 -24.637 -51.4244 -60.4513 -7.05409 12.5173 36.5379 -28.4102 -40.0896 75.1184 6.52977 -26.5318 -4.08109 -3.18055e-015 3.18055e-015 -3.18055e-015 1.76556e-031 3.18055e-015 -3.18055e-015 -6.36111e-015 -3.18055e-015 -0 -3.18055e-015 3.18055e-015 -3.18055e-015 0.0149947 -9.42949e-005 6.6999e-006 1.27222e-014 -3.18055e-015 -1.59028e-015 -3.18055e-015 3.18055e-015 -3.18055e-015 0.0189829 -0.00118726 -6.12972e-005 -1.85337e-006 -4.34579e-008 1.99266e-006 -3.18055e-015 3.18055e-015 -3.18055e-015 0.0122399 -0.00323682 -0.00068021 3.18055e-015 0 -0 -3.18055e-015 3.18055e-015 -3.18055e-015 1.76556e-031 3.18055e-015 -3.18055e-015 -6.36111e-015 -3.18055e-015 -0 -2.35785 -17.2018 -6.38706 -165.435 65.3302 161.504 -9.32707 53.8966 -4.53737 1.44922e-006 8.41035e-008 5.10867e-007 4.00437 -14.9881 3.28819 165.528 64.5397 -160.663 11.6584 54.2237 -2.01047 -1.77678e-007 4.08001e-008 4.05727e-008 
